<?xml version="1.0" encoding="UTF-8" standalone="no"?><svg xmlns="http://www.w3.org/2000/svg" xmlns:xlink="http://www.w3.org/1999/xlink" contentScriptType="application/ecmascript" contentStyleType="text/css" height="537px" preserveAspectRatio="none" style="width:728px;height:537px;background:#FFFFFF;" version="1.1" viewBox="0 0 728 537" width="728px" zoomAndPan="magnify"><defs><filter height="300%" id="f1vkohxawcmmhj" width="300%" x="-1" y="-1"><feGaussianBlur result="blurOut" stdDeviation="2.0"/><feColorMatrix in="blurOut" result="blurOut2" type="matrix" values="0 0 0 0 0 0 0 0 0 0 0 0 0 0 0 0 0 0 .4 0"/><feOffset dx="4.0" dy="4.0" in="blurOut2" result="blurOut3"/><feBlend in="SourceGraphic" in2="blurOut3" mode="normal"/></filter></defs><g><rect fill="#DDDDDD" height="518.2344" style="stroke:#A80036;stroke-width:1.0;" width="249" x="342" y="6"/><text fill="#000000" font-family="sans-serif" font-size="13" font-weight="bold" lengthAdjust="spacing" textLength="91" x="421" y="18.5684">Alice's device</text><rect fill="#FFFFFF" filter="url(#f1vkohxawcmmhj)" height="183.7734" style="stroke:#A80036;stroke-width:1.0;" width="10" x="546" y="299.1504"/><line style="stroke:#A80036;stroke-width:1.0;stroke-dasharray:5.0,5.0;" x1="362" x2="362" y1="104.2871" y2="530.2344"/><line style="stroke:#A80036;stroke-width:1.0;stroke-dasharray:5.0,5.0;" x1="551" x2="551" y1="211.0859" y2="530.2344"/><line style="stroke:#A80036;stroke-width:1.0;stroke-dasharray:5.0,5.0;" x1="663" x2="663" y1="104.2871" y2="530.2344"/><text fill="#000000" font-family="sans-serif" font-size="14" lengthAdjust="spacing" textLength="26" x="346" y="101.334">app</text><ellipse cx="362" cy="71.7988" fill="#FEFECE" filter="url(#f1vkohxawcmmhj)" rx="12" ry="12" style="stroke:#A80036;stroke-width:2.0;"/><polygon fill="#A80036" points="358,59.7988,364,54.7988,362,59.7988,364,64.7988,358,59.7988" style="stroke:#A80036;stroke-width:1.0;"/><rect fill="#FEFECE" filter="url(#f1vkohxawcmmhj)" height="30.4883" style="stroke:#A80036;stroke-width:1.5;" width="88" x="617" y="68.7988"/><text fill="#000000" font-family="sans-serif" font-size="14" lengthAdjust="spacing" textLength="74" x="624" y="89.334">messaging</text><rect fill="#FFFFFF" filter="url(#f1vkohxawcmmhj)" height="183.7734" style="stroke:#A80036;stroke-width:1.0;" width="10" x="546" y="299.1504"/><line style="stroke:#A80036;stroke-width:1.0;" x1="362" x2="404" y1="135.5977" y2="135.5977"/><line style="stroke:#A80036;stroke-width:1.0;" x1="404" x2="404" y1="135.5977" y2="148.5977"/><line style="stroke:#A80036;stroke-width:1.0;" x1="363" x2="404" y1="148.5977" y2="148.5977"/><polygon fill="#A80036" points="373,144.5977,363,148.5977,373,152.5977,369,148.5977" style="stroke:#A80036;stroke-width:1.0;"/><text fill="#000000" font-family="sans-serif" font-size="13" lengthAdjust="spacing" textLength="115" x="369" y="130.8555">Authenticate Alice</text><polygon fill="#A80036" points="503,173.9082,513,177.9082,503,181.9082,507,177.9082" style="stroke:#A80036;stroke-width:1.0;"/><line style="stroke:#A80036;stroke-width:1.0;" x1="362" x2="509" y1="177.9082" y2="177.9082"/><text fill="#000000" font-family="sans-serif" font-size="13" lengthAdjust="spacing" textLength="21" x="369" y="173.166">init</text><text fill="#000000" font-family="monospace" font-size="13" lengthAdjust="spacing" textLength="104" x="394" y="172.8423">domain.ex.org</text><text fill="#000000" font-family="sans-serif" font-size="14" font-style="italic" lengthAdjust="spacing" textLength="66" x="515" y="216.1328">«genesis»</text><text fill="#000000" font-family="sans-serif" font-size="14" lengthAdjust="spacing" textLength="37" x="529.5" y="232.6211">clone</text><path d="M533,166.5977 C533,156.5977 551,156.5977 551,156.5977 C551,156.5977 569,156.5977 569,166.5977 L569,192.5977 C569,202.5977 551,202.5977 551,202.5977 C551,202.5977 533,202.5977 533,192.5977 L533,166.5977 " fill="#FEFECE" filter="url(#f1vkohxawcmmhj)" style="stroke:#000000;stroke-width:1.5;"/><path d="M533,166.5977 C533,176.5977 551,176.5977 551,176.5977 C551,176.5977 569,176.5977 569,166.5977 " fill="none" style="stroke:#000000;stroke-width:1.5;"/><polygon fill="#A80036" points="534,295.1504,544,299.1504,534,303.1504,538,299.1504" style="stroke:#A80036;stroke-width:1.0;"/><line style="stroke:#A80036;stroke-width:1.0;" x1="362" x2="540" y1="299.1504" y2="299.1504"/><text fill="#000000" font-family="sans-serif" font-size="13" lengthAdjust="spacing" textLength="120" x="369" y="294.4082">Op0 ≪transaction≫</text><rect fill="#FBFB77" filter="url(#f1vkohxawcmmhj)" height="83" style="stroke:#A80036;stroke-width:1.0;" width="352" x="5" y="250.5742"/><text fill="#000000" font-family="monospace" font-size="13" lengthAdjust="spacing" textLength="48" x="9" y="266.6411">INSERT</text><text fill="#000000" font-family="monospace" font-size="13" lengthAdjust="spacing" textLength="208" x="25" y="281.7739">Alice mld:publicKey 1234 .</text><text fill="#000000" font-family="monospace" font-size="13" lengthAdjust="spacing" textLength="240" x="25" y="296.9067">Alice a mld:GenesisPrincipal .</text><text fill="#000000" font-family="monospace" font-size="13" lengthAdjust="spacing" textLength="328" x="25" y="312.0396">domain.ex.org mld:access mld:Permission .</text><text fill="#000000" font-family="sans-serif" font-size="13" lengthAdjust="spacing" textLength="276" x="9" y="327.6738">(declares access control is by whitelist ACL)</text><rect fill="#FBFB77" filter="url(#f1vkohxawcmmhj)" height="53" style="stroke:#A80036;stroke-width:1.0;" width="336" x="383" y="344.416"/><text fill="#000000" font-family="monospace" font-size="13" lengthAdjust="spacing" textLength="240" x="387" y="360.4829">Alice a mld:GenesisPrincipal .</text><text fill="#000000" font-family="monospace" font-size="13" lengthAdjust="spacing" textLength="328" x="387" y="375.6157">domain.ex.org mld:access mld:Permission .</text><text fill="#000000" font-family="sans-serif" font-size="13" lengthAdjust="spacing" textLength="237" x="387" y="391.25">(unilaterally allowed because genesis)</text><polygon fill="#A80036" points="651,420.3027,661,424.3027,651,428.3027,655,424.3027" style="stroke:#A80036;stroke-width:1.0;"/><line style="stroke:#A80036;stroke-width:1.0;" x1="556" x2="657" y1="424.3027" y2="424.3027"/><text fill="#000000" font-family="sans-serif" font-size="13" lengthAdjust="spacing" textLength="83" x="563" y="419.5605">Op0 ≪agree≫</text><polygon fill="#A80036" points="373,449.6133,363,453.6133,373,457.6133,369,453.6133" style="stroke:#A80036;stroke-width:1.0;"/><line style="stroke:#A80036;stroke-width:1.0;stroke-dasharray:2.0,2.0;" x1="367" x2="545" y1="453.6133" y2="453.6133"/><text fill="#000000" font-family="sans-serif" font-size="13" font-style="italic" lengthAdjust="spacing" textLength="45" x="379" y="448.8711">resolve</text><polygon fill="#A80036" points="373,478.9238,363,482.9238,373,486.9238,369,482.9238" style="stroke:#A80036;stroke-width:1.0;"/><line style="stroke:#A80036;stroke-width:1.0;" x1="367" x2="550" y1="482.9238" y2="482.9238"/><text fill="#000000" font-family="sans-serif" font-size="13" lengthAdjust="spacing" textLength="92" x="379" y="478.1816">Op0 ≪update≫</text><line style="stroke:#A80036;stroke-width:2.0;" x1="706" x2="716" y1="507.2344" y2="517.2344"/><line style="stroke:#A80036;stroke-width:2.0;" x1="706" x2="716" y1="517.2344" y2="507.2344"/><line style="stroke:#A80036;stroke-width:1.0;" x1="663" x2="711" y1="512.2344" y2="512.2344"/><text fill="#000000" font-family="sans-serif" font-size="13" lengthAdjust="spacing" textLength="26" x="670" y="507.4922">Op0</text><!--MD5=[dff736e97aaf588335fb93cfed8e315c]
@startuml
'https://plantuml.com/sequence-diagram
hide footbox

box Alice's device
control "app" as proc1
database "clone" as genesis << genesis >>
end box

proc1 -> proc1: Authenticate Alice
proc1 -> genesis **: init ""domain.ex.org""

proc1 -> genesis ++: Op0 ≪transaction≫
rnote left
<code>
INSERT
  Alice mld:publicKey 1234 .
  Alice a mld:GenesisPrincipal .
  domain.ex.org mld:access mld:Permission .
</code>
(declares access control is by whitelist ACL)
end note

rnote over genesis
<code>
Alice a mld:GenesisPrincipal .
domain.ex.org mld:access mld:Permission .
</code>
(unilaterally allowed because genesis)
end note

genesis -> messaging: Op0 ≪agree≫
genesis - -> proc1: //resolve//
genesis -> proc1 - -: Op0 ≪update≫
messaging ->x] : Op0

@enduml

@startuml
hide footbox

box Alice's device
control "app" as proc1
database "clone" as genesis << genesis >>
end box

proc1 -> proc1: Authenticate Alice
proc1 -> genesis **: init ""domain.ex.org""

proc1 -> genesis ++: Op0 ≪transaction≫
rnote left
<code>
INSERT
  Alice mld:publicKey 1234 .
  Alice a mld:GenesisPrincipal .
  domain.ex.org mld:access mld:Permission .
</code>
(declares access control is by whitelist ACL)
end note

rnote over genesis
<code>
Alice a mld:GenesisPrincipal .
domain.ex.org mld:access mld:Permission .
</code>
(unilaterally allowed because genesis)
end note

genesis -> messaging: Op0 ≪agree≫
genesis - -> proc1: //resolve//
genesis -> proc1 - -: Op0 ≪update≫
messaging ->x] : Op0

@enduml

PlantUML version 1.2021.10(Mon Aug 30 14:43:48 BST 2021)
(GPL source distribution)
Java Runtime: OpenJDK Runtime Environment
JVM: OpenJDK 64-Bit Server VM
Default Encoding: UTF-8
Language: en
Country: GB
--></g></svg>