<?xml version="1.0" encoding="UTF-8" standalone="no"?><svg xmlns="http://www.w3.org/2000/svg" xmlns:xlink="http://www.w3.org/1999/xlink" contentScriptType="application/ecmascript" contentStyleType="text/css" height="668px" preserveAspectRatio="none" style="width:684px;height:668px;background:#FFFFFF;" version="1.1" viewBox="0 0 684 668" width="684px" zoomAndPan="magnify"><defs><filter height="300%" id="fza07kjzrw3x9" width="300%" x="-1" y="-1"><feGaussianBlur result="blurOut" stdDeviation="2.0"/><feColorMatrix in="blurOut" result="blurOut2" type="matrix" values="0 0 0 0 0 0 0 0 0 0 0 0 0 0 0 0 0 0 .4 0"/><feOffset dx="4.0" dy="4.0" in="blurOut2" result="blurOut3"/><feBlend in="SourceGraphic" in2="blurOut3" mode="normal"/></filter></defs><g><rect fill="#FFC0CB" filter="url(#fza07kjzrw3x9)" height="34.1328" style="stroke:#A80036;stroke-width:1.5;" width="118" x="276.5" y="365"/><text fill="#000000" font-family="sans-serif" font-size="12" lengthAdjust="spacing" textLength="104" x="283.5" y="378.6016">principalIsGenesis</text><line style="stroke:#A80036;stroke-width:1.5;" x1="277.5" x2="393.5" y1="383.1328" y2="383.1328"/><path d="M429.5,361.5 L429.5,378 L394.84,382 L429.5,386 L429.5,402.1211 A0,0 0 0 0 429.5,402.1211 L675.5,402.1211 A0,0 0 0 0 675.5,402.1211 L675.5,371.5 L665.5,361.5 L429.5,361.5 A0,0 0 0 0 429.5,361.5 " fill="#FBFB77" filter="url(#fza07kjzrw3x9)" style="stroke:#A80036;stroke-width:1.0;"/><path d="M665.5,361.5 L665.5,371.5 L675.5,371.5 L665.5,361.5 " fill="#FBFB77" style="stroke:#A80036;stroke-width:1.0;"/><text fill="#000000" font-family="sans-serif" font-size="13" lengthAdjust="spacing" textLength="207" x="435.5" y="379.0684">Default condition that allows the</text><text fill="#000000" font-family="sans-serif" font-size="13" lengthAdjust="spacing" textLength="225" x="435.5" y="394.3789">genesis principal to agree anything.</text><!--MD5=[e858af084306b6893e511512445fa96f]
class AgreementCondition--><rect codeLine="14" fill="#FEFECE" filter="url(#fza07kjzrw3x9)" height="54.2656" id="AgreementCondition" style="stroke:#A80036;stroke-width:1.5;" width="123" x="297" y="224"/><text fill="#000000" font-family="sans-serif" font-size="12" font-style="italic" lengthAdjust="spacing" textLength="62" x="327.5" y="240.6016">«statutory»</text><text fill="#000000" font-family="sans-serif" font-size="12" lengthAdjust="spacing" textLength="117" x="300" y="254.7344">AgreementCondition</text><line style="stroke:#A80036;stroke-width:1.5;" x1="298" x2="419" y1="262.2656" y2="262.2656"/><line style="stroke:#A80036;stroke-width:1.5;" x1="298" x2="419" y1="270.2656" y2="270.2656"/><!--MD5=[bfe80886124190284096452d0cb4568d]
class Principal--><rect codeLine="17" fill="#FEFECE" filter="url(#fza07kjzrw3x9)" height="53.0879" id="Principal" style="stroke:#A80036;stroke-width:1.5;" width="105" x="162" y="601"/><text fill="#000000" font-family="sans-serif" font-size="12" lengthAdjust="spacing" textLength="49" x="190" y="617.6016">Principal</text><line style="stroke:#A80036;stroke-width:1.5;" x1="163" x2="266" y1="625.1328" y2="625.1328"/><text fill="#000000" font-family="sans-serif" font-size="11" lengthAdjust="spacing" textLength="93" x="168" y="639.7676">publicKey : String</text><line style="stroke:#A80036;stroke-width:1.5;" x1="163" x2="266" y1="646.0879" y2="646.0879"/><!--MD5=[eabb559b058bd6ae854123d94e89b848]
class GenesisPrincipal--><rect codeLine="21" fill="#FEFECE" filter="url(#fza07kjzrw3x9)" height="54.2656" id="GenesisPrincipal" style="stroke:#A80036;stroke-width:1.5;" width="100" x="262.5" y="486"/><text fill="#000000" font-family="sans-serif" font-size="12" font-style="italic" lengthAdjust="spacing" textLength="62" x="281.5" y="502.6016">«statutory»</text><text fill="#000000" font-family="sans-serif" font-size="12" lengthAdjust="spacing" textLength="94" x="265.5" y="516.7344">GenesisPrincipal</text><line style="stroke:#A80036;stroke-width:1.5;" x1="263.5" x2="361.5" y1="524.2656" y2="524.2656"/><line style="stroke:#A80036;stroke-width:1.5;" x1="263.5" x2="361.5" y1="532.2656" y2="532.2656"/><!--MD5=[2fa5fbc8e001eea309e0c2d7ce9724cc]
class Authority--><rect codeLine="26" fill="#FEFECE" filter="url(#fza07kjzrw3x9)" height="40.1328" id="Authority" style="stroke:#A80036;stroke-width:1.5;" width="57" x="219" y="123"/><text fill="#000000" font-family="sans-serif" font-size="12" lengthAdjust="spacing" textLength="51" x="222" y="139.6016">Authority</text><line style="stroke:#A80036;stroke-width:1.5;" x1="220" x2="275" y1="147.1328" y2="147.1328"/><line style="stroke:#A80036;stroke-width:1.5;" x1="220" x2="275" y1="155.1328" y2="155.1328"/><path d="M76,6 L76,61.9316 A0,0 0 0 0 76,61.9316 L243.5,61.9316 L247.5,122.77 L251.5,61.9316 L419,61.9316 A0,0 0 0 0 419,61.9316 L419,16 L409,6 L76,6 A0,0 0 0 0 76,6 " fill="#FBFB77" filter="url(#fza07kjzrw3x9)" style="stroke:#A80036;stroke-width:1.0;"/><path d="M409,6 L409,16 L419,16 L409,6 " fill="#FBFB77" style="stroke:#A80036;stroke-width:1.0;"/><text fill="#000000" font-family="sans-serif" font-size="13" lengthAdjust="spacing" textLength="281" x="82" y="23.5684">Authority is permission to unilaterally agree.</text><text fill="#000000" font-family="sans-serif" font-size="13" lengthAdjust="spacing" textLength="322" x="82" y="38.8789">A "lock" is just temporary authority over some data</text><text fill="#000000" font-family="sans-serif" font-size="13" lengthAdjust="spacing" textLength="184" x="82" y="54.1895">(which may not be statutory).</text><!--MD5=[03da7ad6344b0b2c818a169ad3cc63fd]
class Permission--><rect codeLine="35" fill="#FEFECE" filter="url(#fza07kjzrw3x9)" height="53.0879" id="Permission" style="stroke:#A80036;stroke-width:1.5;" width="155" x="107" y="224.5"/><text fill="#000000" font-family="sans-serif" font-size="12" lengthAdjust="spacing" textLength="62" x="153.5" y="241.1016">Permission</text><line style="stroke:#A80036;stroke-width:1.5;" x1="108" x2="261" y1="248.6328" y2="248.6328"/><text fill="#000000" font-family="sans-serif" font-size="11" lengthAdjust="spacing" textLength="143" x="113" y="263.2676">appliesToPattern : json-rql</text><line style="stroke:#A80036;stroke-width:1.5;" x1="108" x2="261" y1="269.5879" y2="269.5879"/><!--MD5=[ee60552bc4698d86a6bc3ed4a603a080]
class AccessControl--><rect codeLine="49" fill="#FEFECE" filter="url(#fza07kjzrw3x9)" height="54.2656" id="AccessControl" style="stroke:#A80036;stroke-width:1.5;" width="86" x="31.5" y="355"/><text fill="#000000" font-family="sans-serif" font-size="12" font-style="italic" lengthAdjust="spacing" textLength="62" x="43.5" y="371.6016">«statutory»</text><text fill="#000000" font-family="sans-serif" font-size="12" lengthAdjust="spacing" textLength="80" x="34.5" y="385.7344">AccessControl</text><line style="stroke:#A80036;stroke-width:1.5;" x1="32.5" x2="116.5" y1="393.2656" y2="393.2656"/><line style="stroke:#A80036;stroke-width:1.5;" x1="32.5" x2="116.5" y1="401.2656" y2="401.2656"/><!--MD5=[5149ab617c6405ee2fcc616057a2a1ff]
class Consensus--><rect codeLine="41" fill="#FEFECE" filter="url(#fza07kjzrw3x9)" height="40.1328" id="Consensus" style="stroke:#A80036;stroke-width:1.5;" width="67" x="409" y="123"/><text fill="#000000" font-family="sans-serif" font-size="12" font-style="italic" lengthAdjust="spacing" textLength="61" x="412" y="139.6016">Consensus</text><line style="stroke:#A80036;stroke-width:1.5;" x1="410" x2="475" y1="147.1328" y2="147.1328"/><line style="stroke:#A80036;stroke-width:1.5;" x1="410" x2="475" y1="155.1328" y2="155.1328"/><!--MD5=[b0a73b92b181cdd4e48969b2967af167]
class External--><rect codeLine="44" fill="#FEFECE" filter="url(#fza07kjzrw3x9)" height="40.1328" id="External" style="stroke:#A80036;stroke-width:1.5;" width="53" x="321" y="123"/><text fill="#000000" font-family="sans-serif" font-size="12" font-style="italic" lengthAdjust="spacing" textLength="47" x="324" y="139.6016">External</text><line style="stroke:#A80036;stroke-width:1.5;" x1="322" x2="373" y1="147.1328" y2="147.1328"/><line style="stroke:#A80036;stroke-width:1.5;" x1="322" x2="373" y1="155.1328" y2="155.1328"/><rect fill="#FFC0CB" filter="url(#fza07kjzrw3x9)" height="34.1328" style="stroke:#A80036;stroke-width:1.5;" width="65" x="7" y="234"/><text fill="#000000" font-family="sans-serif" font-size="12" lengthAdjust="spacing" textLength="51" x="14" y="247.6016">[domain]</text><line style="stroke:#A80036;stroke-width:1.5;" x1="8" x2="71" y1="252.1328" y2="252.1328"/><!--MD5=[bf9c4d0289423888154cb443b3bf23cb]
reverse link AgreementCondition to principalIsGenesis--><path codeLine="15" d="M352.95,283.11 C348.37,308.82 342.04,344.3 338.4,364.73 " fill="none" id="AgreementCondition-backto-principalIsGenesis" style="stroke:#A80036;stroke-width:1.0;"/><polygon fill="#A80036" points="353.85,278.11,348.34,286.2733,352.977,283.0332,356.2171,287.6702,353.85,278.11" style="stroke:#A80036;stroke-width:1.0;"/><text fill="#000000" font-family="sans-serif" font-size="13" lengthAdjust="spacing" textLength="49" x="348.5" y="321.5684">rdf:type</text><!--MD5=[b8257a81a0468e5f0add402368247a23]
link GenesisPrincipal to Principal--><path codeLine="22" d="M289.77,540.09 C277.94,553.68 263.2,570.6 249.91,585.85 " fill="none" id="GenesisPrincipal-to-Principal" style="stroke:#A80036;stroke-width:1.0;"/><polygon fill="none" points="255.18,590.45,236.77,600.94,244.63,581.26,255.18,590.45" style="stroke:#A80036;stroke-width:1.0;"/><!--MD5=[19638d045c50b5a55669e5925793ae3a]
link principalIsGenesis to GenesisPrincipal--><path codeLine="24" d="M332.63,399.08 C329,419.47 322.65,455.07 318.05,480.86 " fill="none" id="principalIsGenesis-to-GenesisPrincipal" style="stroke:#A80036;stroke-width:1.0;stroke-dasharray:7.0,7.0;"/><polygon fill="#A80036" points="317.16,485.87,322.6888,477.7194,318.0444,480.9488,314.815,476.3044,317.16,485.87" style="stroke:#A80036;stroke-width:1.0;"/><text fill="#000000" font-family="sans-serif" font-size="13" lengthAdjust="spacing" textLength="65" x="325.5" y="452.5684">«requires»</text><!--MD5=[8b6f1e90b8ecc3fa151f5cdeaa947eb6]
link Authority to AgreementCondition--><path codeLine="32" d="M267.6,163.2 C281.19,176.17 299.63,193.78 316.35,209.75 " fill="none" id="Authority-to-AgreementCondition" style="stroke:#A80036;stroke-width:1.0;"/><polygon fill="none" points="321.4,204.89,331.03,223.77,311.73,215.02,321.4,204.89" style="stroke:#A80036;stroke-width:1.0;"/><!--MD5=[4af3da69a748770557492dfddba56560]
link Permission to Principal--><path codeLine="33" d="M187.62,290.93 C193.37,362.74 211.4704,588.6176 211.4704,588.6176 " fill="none" id="Permission-Principal" style="stroke:#A80036;stroke-width:1.0;"/><polygon fill="#FFFFFF" points="212.42,600.58,215.9327,594.2823,211.4704,588.6176,207.9577,594.9154,212.42,600.58" style="stroke:#A80036;stroke-width:1.0;"/><polygon fill="#A80036" points="186.56,277.74,183.2839,287.028,186.9552,282.7244,191.2589,286.3956,186.56,277.74" style="stroke:#A80036;stroke-width:1.0;"/><line style="stroke:#A80036;stroke-width:1.0;" x1="186.9552" x2="187.6" y1="282.7244" y2="290.7"/><text fill="#000000" font-family="sans-serif" font-size="13" lengthAdjust="spacing" textLength="91" x="201.5" y="452.5684">hasPermission</text><text fill="#000000" font-family="sans-serif" font-size="13" lengthAdjust="spacing" textLength="6" x="180.3426" y="298.2521">*</text><!--MD5=[96eee550a59ae7ffa921e3bfe0a3b7b5]
link Authority to Permission--><path codeLine="38" d="M235.94,163.44 C228.72,175.59 219.12,191.75 210.17,206.8 " fill="none" id="Authority-to-Permission" style="stroke:#A80036;stroke-width:1.0;"/><polygon fill="none" points="216.02,210.67,199.78,224.29,203.98,203.52,216.02,210.67" style="stroke:#A80036;stroke-width:1.0;"/><!--MD5=[cb7c95fcd55ad0de7117334bc44c0516]
link Permission to AccessControl--><path codeLine="39" d="M162.5,277.8 C147.46,295.43 127.2,319.2 109.91,339.48 " fill="none" id="Permission-to-AccessControl" style="stroke:#A80036;stroke-width:1.0;"/><polygon fill="none" points="115.14,344.13,96.83,354.81,104.49,335.05,115.14,344.13" style="stroke:#A80036;stroke-width:1.0;"/><!--MD5=[6ffe0ef12a239c7b51a58ed9bfd37956]
link Consensus to AgreementCondition--><path codeLine="42" d="M427.09,163.44 C417.21,175.91 404,192.58 391.81,207.96 " fill="none" id="Consensus-to-AgreementCondition" style="stroke:#A80036;stroke-width:1.0;"/><polygon fill="none" points="397.1,212.56,379.19,223.89,386.13,203.87,397.1,212.56" style="stroke:#A80036;stroke-width:1.0;"/><!--MD5=[ad4174f246f69aa3bdc0adb50174fd0f]
link External to AgreementCondition--><path codeLine="45" d="M349.52,163.44 C350.69,174.71 352.21,189.43 353.68,203.51 " fill="none" id="External-to-AgreementCondition" style="stroke:#A80036;stroke-width:1.0;"/><polygon fill="none" points="360.69,203.28,355.79,223.89,346.76,204.72,360.69,203.28" style="stroke:#A80036;stroke-width:1.0;"/><!--MD5=[f5d0b4afdc19367f7fc31d30f453502c]
link domain to AccessControl--><path codeLine="50" d="M42.14,268.1 C44.74,283 49.1,305.69 54.5,325 C56.78,333.15 59.65,341.82 62.5,349.85 " fill="none" id="domain-to-AccessControl" style="stroke:#A80036;stroke-width:1.0;"/><polygon fill="#A80036" points="64.27,354.75,64.9967,344.928,62.582,350.0436,57.4664,347.6288,64.27,354.75" style="stroke:#A80036;stroke-width:1.0;"/><text fill="#000000" font-family="sans-serif" font-size="13" lengthAdjust="spacing" textLength="42" x="55.5" y="321.5684">access</text><text fill="#000000" font-family="sans-serif" font-size="13" lengthAdjust="spacing" textLength="6" x="55.2106" y="344.2876">*</text><!--MD5=[98c3dd1391387492a2107cab34a3084f]
@startuml
'https://plantuml.com/object-diagram
hide circle

skinparam object {
  BackgroundColor Pink
}

object principalIsGenesis
note right
  Default condition that allows the
  genesis principal to agree anything.
end note

class AgreementCondition <<statutory>>
AgreementCondition <- - principalIsGenesis : rdf:type

class Principal {
  publicKey : String
}

class GenesisPrincipal <<statutory>>
GenesisPrincipal - -|> Principal

principalIsGenesis ..> GenesisPrincipal : <<requires>>

class Authority
note top
Authority is permission to unilaterally agree.
A "lock" is just temporary authority over some data
(which may not be statutory).
end note
Authority - -|> AgreementCondition
Permission "*" <- -o Principal : hasPermission

class Permission {
  appliesToPattern : json-rql
}
Authority - -|> Permission
Permission - -|> AccessControl

abstract class Consensus
Consensus - -|> AgreementCondition

abstract class External
External - -|> AgreementCondition

object "[domain]" as domain

class AccessControl <<statutory>>
domain - -> "*" AccessControl : access

@enduml

@startuml
hide circle

skinparam object {
  BackgroundColor Pink
}

object principalIsGenesis
note right
  Default condition that allows the
  genesis principal to agree anything.
end note

class AgreementCondition <<statutory>>
AgreementCondition <- - principalIsGenesis : rdf:type

class Principal {
  publicKey : String
}

class GenesisPrincipal <<statutory>>
GenesisPrincipal - -|> Principal

principalIsGenesis ..> GenesisPrincipal : <<requires>>

class Authority
note top
Authority is permission to unilaterally agree.
A "lock" is just temporary authority over some data
(which may not be statutory).
end note
Authority - -|> AgreementCondition
Permission "*" <- -o Principal : hasPermission

class Permission {
  appliesToPattern : json-rql
}
Authority - -|> Permission
Permission - -|> AccessControl

abstract class Consensus
Consensus - -|> AgreementCondition

abstract class External
External - -|> AgreementCondition

object "[domain]" as domain

class AccessControl <<statutory>>
domain - -> "*" AccessControl : access

@enduml

PlantUML version 1.2021.10(Mon Aug 30 14:43:48 BST 2021)
(GPL source distribution)
Java Runtime: OpenJDK Runtime Environment
JVM: OpenJDK 64-Bit Server VM
Default Encoding: UTF-8
Language: en
Country: GB
--></g></svg>