<?xml version="1.0" encoding="UTF-8" standalone="no"?><svg xmlns="http://www.w3.org/2000/svg" xmlns:xlink="http://www.w3.org/1999/xlink" contentScriptType="application/ecmascript" contentStyleType="text/css" height="553px" preserveAspectRatio="none" style="width:701px;height:553px;background:#FFFFFF;" version="1.1" viewBox="0 0 701 553" width="701px" zoomAndPan="magnify"><defs><filter height="300%" id="f13h0hrnxp44hv" width="300%" x="-1" y="-1"><feGaussianBlur result="blurOut" stdDeviation="2.0"/><feColorMatrix in="blurOut" result="blurOut2" type="matrix" values="0 0 0 0 0 0 0 0 0 0 0 0 0 0 0 0 0 0 .4 0"/><feOffset dx="4.0" dy="4.0" in="blurOut2" result="blurOut3"/><feBlend in="SourceGraphic" in2="blurOut3" mode="normal"/></filter></defs><g><!--MD5=[3033666b299940720da52d7acf40ab9f]
cluster mld--><polygon fill="#FFFFFF" filter="url(#f13h0hrnxp44hv)" points="16,6,50,6,57,28.4883,684,28.4883,684,546,16,546,16,6" style="stroke:#000000;stroke-width:1.5;"/><line style="stroke:#000000;stroke-width:1.5;" x1="16" x2="57" y1="28.4883" y2="28.4883"/><text fill="#000000" font-family="sans-serif" font-size="14" font-weight="bold" lengthAdjust="spacing" textLength="28" x="20" y="21.5352">mld</text><!--MD5=[cd04947691f50ee5ceee535c917130ac]
class Statute--><rect codeLine="11" fill="#FEFECE" filter="url(#f13h0hrnxp44hv)" height="80.1758" id="Statute" style="stroke:#A80036;stroke-width:1.5;" width="210" x="66" y="306.5"/><text fill="#000000" font-family="sans-serif" font-size="12" font-style="italic" lengthAdjust="spacing" textLength="100" x="121" y="323.1016">«extension point»</text><text fill="#000000" font-family="sans-serif" font-size="12" lengthAdjust="spacing" textLength="39" x="151.5" y="337.2344">Statute</text><line style="stroke:#A80036;stroke-width:1.5;" x1="67" x2="275" y1="344.7656" y2="344.7656"/><text fill="#000000" font-family="sans-serif" font-size="11" lengthAdjust="spacing" textLength="170" x="72" y="359.4004">statutoryClass : rdfs:Class [0..*]</text><text fill="#000000" font-family="sans-serif" font-size="11" lengthAdjust="spacing" textLength="198" x="72" y="372.3555">statutoryProperty : rdf:Property [0..*]</text><line style="stroke:#A80036;stroke-width:1.5;" x1="67" x2="275" y1="378.6758" y2="378.6758"/><path d="M32.5,474 L32.5,529.9316 A0,0 0 0 0 32.5,529.9316 L351.5,529.9316 A0,0 0 0 0 351.5,529.9316 L351.5,484 L341.5,474 L192.25,474 L176.35,386.63 L184.25,474 L32.5,474 A0,0 0 0 0 32.5,474 " fill="#FBFB77" filter="url(#f13h0hrnxp44hv)" style="stroke:#A80036;stroke-width:1.0;"/><path d="M341.5,474 L341.5,484 L351.5,484 L341.5,474 " fill="#FBFB77" style="stroke:#A80036;stroke-width:1.0;"/><text fill="#000000" font-family="sans-serif" font-size="13" lengthAdjust="spacing" textLength="283" x="38.5" y="491.5684">Defines a scope of data requiring agreement.</text><text fill="#000000" font-family="sans-serif" font-size="13" lengthAdjust="spacing" textLength="268" x="38.5" y="506.8789">In other diagrams we'll use the «statutory»</text><text fill="#000000" font-family="sans-serif" font-size="13" lengthAdjust="spacing" textLength="298" x="38.5" y="522.1895">stereotype for statutory classes and properties.</text><path d="M311.5,296 L311.5,312.3105 L242,355.2432 L311.5,320.3105 L311.5,336.6211 A0,0 0 0 0 311.5,336.6211 L504.5,336.6211 A0,0 0 0 0 504.5,336.6211 L504.5,306 L494.5,296 L311.5,296 A0,0 0 0 0 311.5,296 " fill="#FBFB77" filter="url(#f13h0hrnxp44hv)" style="stroke:#A80036;stroke-width:1.0;"/><path d="M494.5,296 L494.5,306 L504.5,306 L494.5,296 " fill="#FBFB77" style="stroke:#A80036;stroke-width:1.0;"/><text fill="#000000" font-family="sans-serif" font-size="13" lengthAdjust="spacing" textLength="145" x="317.5" y="313.5684">A class is statutory if a</text><text fill="#000000" font-family="sans-serif" font-size="13" lengthAdjust="spacing" textLength="172" x="317.5" y="328.8789">statutoryClass exists for it.</text><path d="M311.5,346.6211 L311.5,362.9316 L270,368.1982 L311.5,370.9316 L311.5,387.2422 A0,0 0 0 0 311.5,387.2422 L498.5,387.2422 A0,0 0 0 0 498.5,387.2422 L498.5,356.6211 L488.5,346.6211 L311.5,346.6211 A0,0 0 0 0 311.5,346.6211 " fill="#FBFB77" filter="url(#f13h0hrnxp44hv)" style="stroke:#A80036;stroke-width:1.0;"/><path d="M488.5,346.6211 L488.5,356.6211 L498.5,356.6211 L488.5,346.6211 " fill="#FBFB77" style="stroke:#A80036;stroke-width:1.0;"/><text fill="#000000" font-family="sans-serif" font-size="13" lengthAdjust="spacing" textLength="155" x="317.5" y="364.1895">A property is statutory if</text><text fill="#000000" font-family="sans-serif" font-size="13" lengthAdjust="spacing" textLength="166" x="317.5" y="379.5">a statutoryProperty exists.</text><!--MD5=[e858af084306b6893e511512445fa96f]
class AgreementCondition--><rect fill="#FEFECE" filter="url(#f13h0hrnxp44hv)" height="40.1328" id="AgreementCondition" style="stroke:#A80036;stroke-width:1.5;" width="123" x="450.5" y="482"/><text fill="#000000" font-family="sans-serif" font-size="12" lengthAdjust="spacing" textLength="117" x="453.5" y="498.6016">AgreementCondition</text><line style="stroke:#A80036;stroke-width:1.5;" x1="451.5" x2="572.5" y1="506.1328" y2="506.1328"/><line style="stroke:#A80036;stroke-width:1.5;" x1="451.5" x2="572.5" y1="514.1328" y2="514.1328"/><rect fill="#FFC0CB" filter="url(#f13h0hrnxp44hv)" height="34.1328" style="stroke:#A80036;stroke-width:1.5;" width="92" x="492" y="171.5"/><text fill="#000000" font-family="sans-serif" font-size="12" lengthAdjust="spacing" textLength="78" x="499" y="185.1016">statuteStatute</text><line style="stroke:#A80036;stroke-width:1.5;" x1="493" x2="583" y1="189.6328" y2="189.6328"/><path d="M482,41 L482,96.9316 A0,0 0 0 0 482,96.9316 L562.42,96.9316 L543.12,171.25 L570.42,96.9316 L668,96.9316 A0,0 0 0 0 668,96.9316 L668,51 L658,41 L482,41 A0,0 0 0 0 482,41 " fill="#FBFB77" filter="url(#f13h0hrnxp44hv)" style="stroke:#A80036;stroke-width:1.0;"/><path d="M658,41 L658,51 L668,51 L658,41 " fill="#FBFB77" style="stroke:#A80036;stroke-width:1.0;"/><text fill="#000000" font-family="sans-serif" font-size="13" lengthAdjust="spacing" textLength="148" x="488" y="58.5684">Statutes and agreement</text><text fill="#000000" font-family="sans-serif" font-size="13" lengthAdjust="spacing" textLength="165" x="488" y="73.8789">conditions are themselves</text><text fill="#000000" font-family="sans-serif" font-size="13" lengthAdjust="spacing" textLength="61" x="488" y="89.1895">statutory.</text><rect fill="#FFC0CB" filter="url(#f13h0hrnxp44hv)" height="61.4648" style="stroke:#A80036;stroke-width:1.5;" width="154" x="256" y="158"/><text fill="#000000" font-family="sans-serif" font-size="12" lengthAdjust="spacing" textLength="62" x="302" y="171.6016">rdfsStatute</text><line style="stroke:#A80036;stroke-width:1.5;" x1="257" x2="409" y1="176.1328" y2="176.1328"/><text fill="#000000" font-family="sans-serif" font-size="10" lengthAdjust="spacing" textLength="132" x="262" y="189.8008">statutoryClass = rdfs:Class</text><text fill="#000000" font-family="sans-serif" font-size="10" lengthAdjust="spacing" textLength="142" x="262" y="201.5781">statutoryClass = rdf:Property</text><text fill="#000000" font-family="sans-serif" font-size="10" lengthAdjust="spacing" textLength="137" x="262" y="213.3555">statutoryProperty = rdf:type</text><path d="M243.5,41 L243.5,96.9316 A0,0 0 0 0 243.5,96.9316 L338.22,96.9316 L336.02,157.93 L346.22,96.9316 L446.5,96.9316 A0,0 0 0 0 446.5,96.9316 L446.5,51 L436.5,41 L243.5,41 A0,0 0 0 0 243.5,41 " fill="#FBFB77" filter="url(#f13h0hrnxp44hv)" style="stroke:#A80036;stroke-width:1.0;"/><path d="M436.5,41 L436.5,51 L446.5,51 L436.5,41 " fill="#FBFB77" style="stroke:#A80036;stroke-width:1.0;"/><text fill="#000000" font-family="sans-serif" font-size="13" lengthAdjust="spacing" textLength="181" x="249.5" y="58.5684">Classes, property definitions</text><text fill="#000000" font-family="sans-serif" font-size="13" lengthAdjust="spacing" textLength="182" x="249.5" y="73.8789">and the type of every subject</text><text fill="#000000" font-family="sans-serif" font-size="13" lengthAdjust="spacing" textLength="76" x="249.5" y="89.1895">is statutory.</text><rect fill="#FFC0CB" filter="url(#f13h0hrnxp44hv)" height="49.6875" style="stroke:#A80036;stroke-width:1.5;" width="160" x="45" y="163.5"/><text fill="#000000" font-family="sans-serif" font-size="12" lengthAdjust="spacing" textLength="118" x="66" y="177.1016">accessControlStatute</text><line style="stroke:#A80036;stroke-width:1.5;" x1="46" x2="204" y1="181.6328" y2="181.6328"/><text fill="#000000" font-family="sans-serif" font-size="10" lengthAdjust="spacing" textLength="148" x="51" y="195.3008">statutoryClass : AccessControl</text><text fill="#000000" font-family="sans-serif" font-size="10" lengthAdjust="spacing" textLength="126" x="51" y="207.0781">statutoryProperty : access</text><path d="M32,48.5 L32,89.1211 A0,0 0 0 0 32,89.1211 L116.84,89.1211 L123.97,163.29 L124.84,89.1211 L208,89.1211 A0,0 0 0 0 208,89.1211 L208,58.5 L198,48.5 L32,48.5 A0,0 0 0 0 32,48.5 " fill="#FBFB77" filter="url(#f13h0hrnxp44hv)" style="stroke:#A80036;stroke-width:1.0;"/><path d="M198,48.5 L198,58.5 L208,58.5 L198,48.5 " fill="#FBFB77" style="stroke:#A80036;stroke-width:1.0;"/><text fill="#000000" font-family="sans-serif" font-size="13" lengthAdjust="spacing" textLength="155" x="38" y="66.0684">Choice of access control</text><text fill="#000000" font-family="sans-serif" font-size="13" lengthAdjust="spacing" textLength="152" x="38" y="81.3789">mechanism is statutory.</text><!--MD5=[4b8dbdf2b641d67ef0c3285b4cf2c099]
link Statute to Statute$$$RIGHT--><!--MD5=[09d19b99fbdb614ae1cd25ab3af48830]
link Statute to AgreementCondition--><path codeLine="29" d="M268.8755,391.5489 C268.8755,391.5489 407.09,453.78 457.44,476.44 " fill="none" id="Statute-AgreementCondition" style="stroke:#A80036;stroke-width:1.0;"/><polygon fill="#A80036" points="469.35,481.8,462.7878,474.4557,464.7914,479.7459,459.5013,481.7495,469.35,481.8" style="stroke:#A80036;stroke-width:1.0;"/><line style="stroke:#A80036;stroke-width:1.0;" x1="464.7914" x2="457.5" y1="479.7459" y2="476.47"/><polygon fill="#FFFFFF" points="257.93,386.63,261.7631,392.738,268.8755,391.5489,265.0424,385.4409,257.93,386.63" style="stroke:#A80036;stroke-width:1.0;"/><text fill="#000000" font-family="sans-serif" font-size="13" lengthAdjust="spacing" textLength="122" x="383" y="440.5684">sufficientCondition</text><text fill="#000000" font-family="sans-serif" font-size="13" lengthAdjust="spacing" textLength="6" x="449.9403" y="471.2576">*</text><!--MD5=[1598ff68aad29ea5e68499dd2fc94919]
link statuteStatute to Statute--><path codeLine="37" d="M491.95,204.88 C458.83,216.27 413.26,232.59 374,249 C333.86,265.78 290.18,286.25 253.65,304.01 " fill="none" id="statuteStatute-to-Statute" style="stroke:#A80036;stroke-width:1.0;"/><polygon fill="#A80036" points="248.78,306.38,258.6223,306.0206,253.2719,304.1839,255.1086,298.8336,248.78,306.38" style="stroke:#A80036;stroke-width:1.0;"/><text fill="#000000" font-family="sans-serif" font-size="13" lengthAdjust="spacing" textLength="91" x="375" y="262.5684">statutoryClass</text><!--MD5=[1598ff68aad29ea5e68499dd2fc94919]
link statuteStatute to Statute--><path codeLine="38" d="M528.67,205.59 C517.41,223.44 496.74,251.61 471,266 C401.35,304.93 370.79,274.31 294,296 C285.04,298.53 275.84,301.5 266.7,304.7 " fill="none" id="statuteStatute-to-Statute-1" style="stroke:#A80036;stroke-width:1.0;"/><polygon fill="#A80036" points="261.93,306.39,271.7513,307.1262,266.6381,304.7065,269.0577,299.5933,261.93,306.39" style="stroke:#A80036;stroke-width:1.0;"/><text fill="#000000" font-family="sans-serif" font-size="13" lengthAdjust="spacing" textLength="49" x="494" y="262.5684">rdf:type</text><!--MD5=[30403d2f473d6f109ec737debcc39d09]
link statuteStatute to AgreementCondition--><path codeLine="39" d="M543.55,205.79 C548.19,221.2 553.77,245.01 552,266 C545.42,343.87 526.79,434.72 517.46,477.03 " fill="none" id="statuteStatute-to-AgreementCondition" style="stroke:#A80036;stroke-width:1.0;"/><polygon fill="#A80036" points="516.37,481.95,522.2271,474.032,517.4547,477.0691,514.4176,472.2966,516.37,481.95" style="stroke:#A80036;stroke-width:1.0;"/><text fill="#000000" font-family="sans-serif" font-size="13" lengthAdjust="spacing" textLength="91" x="549" y="351.5684">statutoryClass</text><!--MD5=[11ba67d0b5a334a2243c53ff83286073]
link rdfsStatute to Statute--><path codeLine="51" d="M299.44,219.12 C288.94,228.55 277.39,239.11 267,249 C249.02,266.12 229.63,285.44 213.01,302.27 " fill="none" id="rdfsStatute-to-Statute" style="stroke:#A80036;stroke-width:1.0;"/><polygon fill="#A80036" points="209.29,306.04,218.4608,302.4488,212.804,302.4831,212.7698,296.8264,209.29,306.04" style="stroke:#A80036;stroke-width:1.0;"/><text fill="#000000" font-family="sans-serif" font-size="13" lengthAdjust="spacing" textLength="49" x="268" y="262.5684">rdf:type</text><!--MD5=[9ebe65d2deca69fcef4b2974ed4ab798]
link accessControlStatute to Statute--><path codeLine="61" d="M130.02,213.79 C133.31,228.92 137.94,248.72 143,266 C146.38,277.55 150.48,289.89 154.49,301.31 " fill="none" id="accessControlStatute-to-Statute" style="stroke:#A80036;stroke-width:1.0;"/><polygon fill="#A80036" points="156.2,306.14,156.989,296.3228,154.5419,301.4229,149.4417,298.9758,156.2,306.14" style="stroke:#A80036;stroke-width:1.0;"/><text fill="#000000" font-family="sans-serif" font-size="13" lengthAdjust="spacing" textLength="49" x="144" y="262.5684">rdf:type</text><!--MD5=[eac2742d48cc35f96ab0e6002cbfd544]
@startuml
'https://plantuml.com/object-diagram

hide circle

skinparam object {
  BackgroundColor Pink
}

package mld {

class Statute <<extension point>> {
  statutoryClass : rdfs:Class [0..*]
  statutoryProperty : rdf:Property [0..*]
}
note bottom
Defines a scope of data requiring agreement.
In other diagrams we'll use the <<statutory>>
stereotype for statutory classes and properties.
end note
note right of Statute::statutoryClass
A class is statutory if a
statutoryClass exists for it.
end note
note right of Statute::statutoryProperty
A property is statutory if
a statutoryProperty exists.
end note

Statute o- -> "*" AgreementCondition : sufficientCondition

object statuteStatute
note top
Statutes and agreement
conditions are themselves
statutory.
end note
statuteStatute - -> Statute : statutoryClass
statuteStatute - -> Statute : rdf:type
statuteStatute - -> AgreementCondition : statutoryClass

object rdfsStatute {
  statutoryClass = rdfs:Class
  statutoryClass = rdf:Property
  statutoryProperty = rdf:type
}
note top
  Classes, property definitions
  and the type of every subject
  is statutory.
end note
rdfsStatute - -> Statute : rdf:type

object accessControlStatute {
  statutoryClass : AccessControl
  statutoryProperty : access
}
note top
  Choice of access control
  mechanism is statutory.
end note
accessControlStatute - -> Statute : rdf:type

}
@enduml

@startuml

hide circle

skinparam object {
  BackgroundColor Pink
}

package mld {

class Statute <<extension point>> {
  statutoryClass : rdfs:Class [0..*]
  statutoryProperty : rdf:Property [0..*]
}
note bottom
Defines a scope of data requiring agreement.
In other diagrams we'll use the <<statutory>>
stereotype for statutory classes and properties.
end note
note right of Statute::statutoryClass
A class is statutory if a
statutoryClass exists for it.
end note
note right of Statute::statutoryProperty
A property is statutory if
a statutoryProperty exists.
end note

Statute o- -> "*" AgreementCondition : sufficientCondition

object statuteStatute
note top
Statutes and agreement
conditions are themselves
statutory.
end note
statuteStatute - -> Statute : statutoryClass
statuteStatute - -> Statute : rdf:type
statuteStatute - -> AgreementCondition : statutoryClass

object rdfsStatute {
  statutoryClass = rdfs:Class
  statutoryClass = rdf:Property
  statutoryProperty = rdf:type
}
note top
  Classes, property definitions
  and the type of every subject
  is statutory.
end note
rdfsStatute - -> Statute : rdf:type

object accessControlStatute {
  statutoryClass : AccessControl
  statutoryProperty : access
}
note top
  Choice of access control
  mechanism is statutory.
end note
accessControlStatute - -> Statute : rdf:type

}
@enduml

PlantUML version 1.2021.10(Mon Aug 30 14:43:48 BST 2021)
(GPL source distribution)
Java Runtime: OpenJDK Runtime Environment
JVM: OpenJDK 64-Bit Server VM
Default Encoding: UTF-8
Language: en
Country: GB
--></g></svg>