<?xml version="1.0" encoding="UTF-8" standalone="no"?><svg xmlns="http://www.w3.org/2000/svg" xmlns:xlink="http://www.w3.org/1999/xlink" contentScriptType="application/ecmascript" contentStyleType="text/css" height="637px" preserveAspectRatio="none" style="width:731px;height:637px;background:#FFFFFF;" version="1.1" viewBox="0 0 731 637" width="731px" zoomAndPan="magnify"><defs><filter height="300%" id="fc0vc4fl9f1qo" width="300%" x="-1" y="-1"><feGaussianBlur result="blurOut" stdDeviation="2.0"/><feColorMatrix in="blurOut" result="blurOut2" type="matrix" values="0 0 0 0 0 0 0 0 0 0 0 0 0 0 0 0 0 0 .4 0"/><feOffset dx="4.0" dy="4.0" in="blurOut2" result="blurOut3"/><feBlend in="SourceGraphic" in2="blurOut3" mode="normal"/></filter></defs><g><!--MD5=[cd04947691f50ee5ceee535c917130ac]
class Statute--><rect codeLine="9" fill="#FEFECE" filter="url(#fc0vc4fl9f1qo)" height="40.1328" id="Statute" style="stroke:#A80036;stroke-width:1.5;" width="45" x="439" y="340.5"/><text fill="#000000" font-family="sans-serif" font-size="12" font-style="italic" lengthAdjust="spacing" textLength="39" x="442" y="357.1016">Statute</text><line style="stroke:#A80036;stroke-width:1.5;" x1="440" x2="483" y1="364.6328" y2="364.6328"/><line style="stroke:#A80036;stroke-width:1.5;" x1="440" x2="483" y1="372.6328" y2="372.6328"/><path d="M235,340 L235,380.6211 A0,0 0 0 0 235,380.6211 L404,380.6211 A0,0 0 0 0 404,380.6211 L404,364.5 L438.63,360.5 L404,356.5 L404,350 L394,340 L235,340 A0,0 0 0 0 235,340 " fill="#FBFB77" filter="url(#fc0vc4fl9f1qo)" style="stroke:#A80036;stroke-width:1.0;"/><path d="M394,340 L394,350 L404,350 L394,340 " fill="#FBFB77" style="stroke:#A80036;stroke-width:1.0;"/><text fill="#000000" font-family="sans-serif" font-size="13" lengthAdjust="spacing" textLength="148" x="241" y="357.5684">Defines a scope of data</text><text fill="#000000" font-family="sans-serif" font-size="13" lengthAdjust="spacing" textLength="127" x="241" y="372.8789">requiring agreement</text><!--MD5=[e858af084306b6893e511512445fa96f]
class AgreementCondition--><rect fill="#FEFECE" filter="url(#fc0vc4fl9f1qo)" height="40.1328" id="AgreementCondition" style="stroke:#A80036;stroke-width:1.5;" width="123" x="415" y="465"/><text fill="#000000" font-family="sans-serif" font-size="12" lengthAdjust="spacing" textLength="117" x="418" y="481.6016">AgreementCondition</text><line style="stroke:#A80036;stroke-width:1.5;" x1="416" x2="537" y1="489.1328" y2="489.1328"/><line style="stroke:#A80036;stroke-width:1.5;" x1="416" x2="537" y1="497.1328" y2="497.1328"/><!--MD5=[532e0f91da44783b22e04af9813303e8]
class Statutory--><rect codeLine="27" fill="#FEFECE" filter="url(#fc0vc4fl9f1qo)" height="40.1328" id="Statutory" style="stroke:#A80036;stroke-width:1.5;" width="56" x="223.5" y="581"/><text fill="#000000" font-family="sans-serif" font-size="12" font-style="italic" lengthAdjust="spacing" textLength="50" x="226.5" y="597.6016">Statutory</text><line style="stroke:#A80036;stroke-width:1.5;" x1="224.5" x2="278.5" y1="605.1328" y2="605.1328"/><line style="stroke:#A80036;stroke-width:1.5;" x1="224.5" x2="278.5" y1="613.1328" y2="613.1328"/><!--MD5=[22fd1acc2e1b71eaf8e6b372fecf3147]
class PropertyStatute--><rect codeLine="18" fill="#FEFECE" filter="url(#fc0vc4fl9f1qo)" height="53.0879" id="PropertyStatute" style="stroke:#A80036;stroke-width:1.5;" width="144" x="389.5" y="224.5"/><text fill="#000000" font-family="sans-serif" font-size="12" lengthAdjust="spacing" textLength="88" x="417.5" y="241.1016">PropertyStatute</text><line style="stroke:#A80036;stroke-width:1.5;" x1="390.5" x2="532.5" y1="248.6328" y2="248.6328"/><text fill="#000000" font-family="sans-serif" font-size="11" lengthAdjust="spacing" textLength="132" x="395.5" y="263.2676">statutoryProperty : Term</text><line style="stroke:#A80036;stroke-width:1.5;" x1="390.5" x2="532.5" y1="269.5879" y2="269.5879"/><path d="M124.5,223 L124.5,278.9316 A0,0 0 0 0 124.5,278.9316 L354.5,278.9316 A0,0 0 0 0 354.5,278.9316 L354.5,255 L389.42,251 L354.5,247 L354.5,233 L344.5,223 L124.5,223 A0,0 0 0 0 124.5,223 " fill="#FBFB77" filter="url(#fc0vc4fl9f1qo)" style="stroke:#A80036;stroke-width:1.0;"/><path d="M344.5,223 L344.5,233 L354.5,233 L344.5,223 " fill="#FBFB77" style="stroke:#A80036;stroke-width:1.0;"/><text fill="#000000" font-family="sans-serif" font-size="13" lengthAdjust="spacing" textLength="209" x="130.5" y="240.5684">Applies to changes to a property.</text><text fill="#000000" font-family="sans-serif" font-size="13" lengthAdjust="spacing" textLength="182" x="130.5" y="255.8789">Does not apply if the Subject</text><text fill="#000000" font-family="sans-serif" font-size="13" lengthAdjust="spacing" textLength="170" x="130.5" y="271.1895">is new or removed entirely.</text><path d="M314.5,573 L314.5,597 L279.53,601 L314.5,605 L314.5,628.9316 A0,0 0 0 0 314.5,628.9316 L538.5,628.9316 A0,0 0 0 0 538.5,628.9316 L538.5,583 L528.5,573 L314.5,573 A0,0 0 0 0 314.5,573 " fill="#FBFB77" filter="url(#fc0vc4fl9f1qo)" style="stroke:#A80036;stroke-width:1.0;"/><path d="M528.5,573 L528.5,583 L538.5,583 L528.5,573 " fill="#FBFB77" style="stroke:#A80036;stroke-width:1.0;"/><text fill="#000000" font-family="sans-serif" font-size="13" lengthAdjust="spacing" textLength="203" x="320.5" y="590.5684">Can be mixed-in to any Subject.</text><text fill="#000000" font-family="sans-serif" font-size="13" lengthAdjust="spacing" textLength="193" x="320.5" y="605.8789">In other diagrams we'll use the</text><text fill="#000000" font-family="sans-serif" font-size="13" lengthAdjust="spacing" textLength="145" x="320.5" y="621.1895">«statutory» stereotype.</text><rect fill="#FFC0CB" filter="url(#fc0vc4fl9f1qo)" height="37.9102" style="stroke:#A80036;stroke-width:1.5;" width="140" x="291.5" y="108"/><text fill="#000000" font-family="sans-serif" font-size="12" lengthAdjust="spacing" textLength="126" x="298.5" y="121.6016">accessPropertyStatute</text><line style="stroke:#A80036;stroke-width:1.5;" x1="292.5" x2="430.5" y1="126.1328" y2="126.1328"/><text fill="#000000" font-family="sans-serif" font-size="10" lengthAdjust="spacing" textLength="126" x="297.5" y="139.8008">statutoryProperty : access</text><path d="M255.5,6 L255.5,46.6211 A0,0 0 0 0 255.5,46.6211 L343.14,46.6211 L358.17,107.76 L351.14,46.6211 L431.5,46.6211 A0,0 0 0 0 431.5,46.6211 L431.5,16 L421.5,6 L255.5,6 A0,0 0 0 0 255.5,6 " fill="#FBFB77" filter="url(#fc0vc4fl9f1qo)" style="stroke:#A80036;stroke-width:1.0;"/><path d="M421.5,6 L421.5,16 L431.5,16 L421.5,6 " fill="#FBFB77" style="stroke:#A80036;stroke-width:1.0;"/><text fill="#000000" font-family="sans-serif" font-size="13" lengthAdjust="spacing" textLength="155" x="261.5" y="23.5684">Choice of access control</text><text fill="#000000" font-family="sans-serif" font-size="13" lengthAdjust="spacing" textLength="148" x="261.5" y="38.8789">mechanism is statutory</text><rect fill="#FFC0CB" filter="url(#fc0vc4fl9f1qo)" height="37.9102" style="stroke:#A80036;stroke-width:1.5;" width="149" x="502" y="108"/><text fill="#000000" font-family="sans-serif" font-size="12" lengthAdjust="spacing" textLength="113" x="520" y="121.6016">typePropertyStatute</text><line style="stroke:#A80036;stroke-width:1.5;" x1="503" x2="650" y1="126.1328" y2="126.1328"/><text fill="#000000" font-family="sans-serif" font-size="10" lengthAdjust="spacing" textLength="137" x="508" y="139.8008">statutoryProperty = rdf:type</text><path d="M467,14 L467,39.3105 A0,0 0 0 0 467,39.3105 L588.36,39.3105 L579.79,107.99 L596.36,39.3105 L722,39.3105 A0,0 0 0 0 722,39.3105 L722,24 L712,14 L467,14 A0,0 0 0 0 467,14 " fill="#FBFB77" filter="url(#fc0vc4fl9f1qo)" style="stroke:#A80036;stroke-width:1.0;"/><path d="M712,14 L712,24 L722,24 L712,14 " fill="#FBFB77" style="stroke:#A80036;stroke-width:1.0;"/><text fill="#000000" font-family="sans-serif" font-size="13" lengthAdjust="spacing" textLength="234" x="473" y="31.5684">The type of every subject is statutory</text><!--MD5=[dbcf245cac938e39a8963e2590c32bb7]
class rdfs:Class--><rect fill="#FEFECE" filter="url(#fc0vc4fl9f1qo)" height="40.1328" id="rdfs:Class" style="stroke:#A80036;stroke-width:1.5;" width="63" x="7" y="465"/><text fill="#000000" font-family="sans-serif" font-size="12" lengthAdjust="spacing" textLength="57" x="10" y="481.6016">rdfs:Class</text><line style="stroke:#A80036;stroke-width:1.5;" x1="8" x2="69" y1="489.1328" y2="489.1328"/><line style="stroke:#A80036;stroke-width:1.5;" x1="8" x2="69" y1="497.1328" y2="497.1328"/><!--MD5=[f5d6fba28c9acdd96eb01d07ddcb0e48]
class rdf:Property--><rect fill="#FEFECE" filter="url(#fc0vc4fl9f1qo)" height="40.1328" id="rdf:Property" style="stroke:#A80036;stroke-width:1.5;" width="76" x="105.5" y="465"/><text fill="#000000" font-family="sans-serif" font-size="12" lengthAdjust="spacing" textLength="70" x="108.5" y="481.6016">rdf:Property</text><line style="stroke:#A80036;stroke-width:1.5;" x1="106.5" x2="180.5" y1="489.1328" y2="489.1328"/><line style="stroke:#A80036;stroke-width:1.5;" x1="106.5" x2="180.5" y1="497.1328" y2="497.1328"/><!--MD5=[09d19b99fbdb614ae1cd25ab3af48830]
link Statute to AgreementCondition--><path codeLine="15" d="M457.5626,392.4824 C457.5626,392.4824 456.75,416.84 458.5,428 C459.77,436.08 462,444.58 464.48,452.46 " fill="none" id="Statute-AgreementCondition" style="stroke:#A80036;stroke-width:1.0;"/><polygon fill="#A80036" points="468.74,464.92,469.6171,455.1103,467.1243,460.1883,462.0463,457.6954,468.74,464.92" style="stroke:#A80036;stroke-width:1.0;"/><line style="stroke:#A80036;stroke-width:1.0;" x1="467.1243" x2="464.535" y1="460.1883" y2="452.62"/><polygon fill="#FFFFFF" points="458.63,380.53,454.1121,386.1504,457.5626,392.4824,462.0804,386.862,458.63,380.53" style="stroke:#A80036;stroke-width:1.0;"/><text fill="#000000" font-family="sans-serif" font-size="13" lengthAdjust="spacing" textLength="122" x="459.5" y="424.5684">sufficientCondition</text><text fill="#000000" font-family="sans-serif" font-size="13" lengthAdjust="spacing" textLength="6" x="459.5793" y="454.4128">*</text><!--MD5=[0321ec2ff669aa8bcccbee0ef1208d4f]
link AgreementCondition to Statutory--><path codeLine="16" d="M434.13,505.16 C400.83,520.5 353.04,543.13 297.67,572.81 " fill="none" id="AgreementCondition-to-Statutory" style="stroke:#A80036;stroke-width:1.0;"/><polygon fill="none" points="300.76,579.1,279.84,582.47,294.09,566.79,300.76,579.1" style="stroke:#A80036;stroke-width:1.0;"/><!--MD5=[07cbee233e0ada6fe81b29744a57d432]
link Statutory to Statute--><path codeLine="33" d="M290.521,575.6916 C290.521,575.6916 294.85,573.67 296.5,573 C406.07,528.49 466.93,590.36 555.5,512 C617.13,457.48 606.55,440.5 586.5,411 C566.68,381.83 526.72,369.85 497.29,364.93 " fill="none" id="Statutory-Statute" style="stroke:#A80036;stroke-width:1.0;"/><polygon fill="#A80036" points="484.23,363.08,492.5779,368.3061,489.1803,363.7833,493.7031,360.3856,484.23,363.08" style="stroke:#A80036;stroke-width:1.0;"/><line style="stroke:#A80036;stroke-width:1.0;" x1="489.1803" x2="497.1" y1="363.7833" y2="364.905"/><polygon fill="#FFFFFF" points="279.86,581.2,287.0266,581.9995,290.521,575.6916,283.3544,574.8921,279.86,581.2" style="stroke:#A80036;stroke-width:1.0;"/><text fill="#000000" font-family="sans-serif" font-size="13" lengthAdjust="spacing" textLength="44" x="600.5" y="490.0684">statute</text><text fill="#000000" font-family="sans-serif" font-size="13" lengthAdjust="spacing" textLength="8" x="492.0819" y="359.2292">1</text><!--MD5=[a05c2932ebcb5cb15dca9262898ef749]
link Statute to Statutory--><path codeLine="36" d="M438.72,372.6 C388.44,397.15 272.2,454.18 269.5,458 C248.49,487.71 245.62,529.9 247.02,560.57 " fill="none" id="Statute-to-Statutory" style="stroke:#A80036;stroke-width:1.0;"/><polygon fill="none" points="254,560.03,248.6,580.52,240.05,561.13,254,560.03" style="stroke:#A80036;stroke-width:1.0;"/><path d="M274.5,463 L274.5,503 L388.5,503 L388.5,473 L378.5,463 L274.5,463 " fill="#FBFB77" filter="url(#fc0vc4fl9f1qo)" style="stroke:#A80036;stroke-width:1.0;"/><path d="M378.5,463 L378.5,473 L388.5,473 L378.5,463 " fill="#FBFB77" style="stroke:#A80036;stroke-width:1.0;"/><text fill="#000000" font-family="sans-serif" font-size="13" lengthAdjust="spacing" textLength="72" x="280.5" y="480.5684">A statute is</text><text fill="#000000" font-family="sans-serif" font-size="13" lengthAdjust="spacing" textLength="93" x="280.5" y="495.8789">itself statutory</text><!--MD5=[1380341c69709be949eeb4ac4fc2c135]
link PropertyStatute to Statute--><path codeLine="34" d="M461.5,277.75 C461.5,290.46 461.5,306.07 461.5,320.23 " fill="none" id="PropertyStatute-to-Statute" style="stroke:#A80036;stroke-width:1.0;"/><polygon fill="none" points="468.5,320.36,461.5,340.36,454.5,320.36,468.5,320.36" style="stroke:#A80036;stroke-width:1.0;"/><!--MD5=[1b87d44bd3e5baec99f33fc4fe252300]
link accessPropertyStatute to PropertyStatute--><path codeLine="49" d="M376.26,146 C392.28,165.55 418.13,197.09 437.17,220.31 " fill="none" id="accessPropertyStatute-to-PropertyStatute" style="stroke:#A80036;stroke-width:1.0;"/><polygon fill="#A80036" points="440.4,224.26,437.7738,214.7677,437.2245,220.3979,431.5943,219.8486,440.4,224.26" style="stroke:#A80036;stroke-width:1.0;"/><text fill="#000000" font-family="sans-serif" font-size="13" lengthAdjust="spacing" textLength="49" x="415.5" y="189.5684">rdf:type</text><!--MD5=[d603ec508d6cc766ca92a2c415cdf41f]
link typePropertyStatute to PropertyStatute--><path codeLine="57" d="M559.53,146 C541.03,165.63 511.13,197.35 489.21,220.6 " fill="none" id="typePropertyStatute-to-PropertyStatute" style="stroke:#A80036;stroke-width:1.0;"/><polygon fill="#A80036" points="485.77,224.26,494.8511,220.4477,489.1968,220.619,489.0255,214.9647,485.77,224.26" style="stroke:#A80036;stroke-width:1.0;"/><text fill="#000000" font-family="sans-serif" font-size="13" lengthAdjust="spacing" textLength="49" x="530.5" y="189.5684">rdf:type</text><!--MD5=[857ef19fc7e50b27e0148bb6c45aaa38]
link rdfs:Class to Statutory--><path codeLine="59" d="M70.39,503.07 C106.26,522.26 164.81,553.6 205.6,575.43 " fill="none" id="rdfs:Class-to-Statutory" style="stroke:#A80036;stroke-width:1.0;"/><polygon fill="none" points="209.15,569.39,223.48,585,202.54,581.74,209.15,569.39" style="stroke:#A80036;stroke-width:1.0;"/><!--MD5=[7eb10ff6b2ebf9d3464feccd05f37603]
link rdf:Property to Statutory--><path codeLine="60" d="M161.58,505.08 C177.31,521.69 200.48,546.15 219.36,566.08 " fill="none" id="rdf:Property-to-Statutory" style="stroke:#A80036;stroke-width:1.0;"/><polygon fill="none" points="224.69,561.52,233.36,580.86,214.53,571.15,224.69,561.52" style="stroke:#A80036;stroke-width:1.0;"/><!--MD5=[b9a4a364e0626fc9a40fe542d22fbd23]
@startuml
'https://plantuml.com/object-diagram

hide circle

skinparam object {
  BackgroundColor Pink
}

abstract class Statute
note left
  Defines a scope of data
  requiring agreement
end note

Statute o- -> "*" AgreementCondition : sufficientCondition
AgreementCondition - -|> Statutory

class PropertyStatute {
  statutoryProperty : Term
}
note left of PropertyStatute
Applies to changes to a property.
Does not apply if the Subject
is new or removed entirely.
end note

abstract class Statutory
note right
Can be mixed-in to any Subject.
In other diagrams we'll use the
<<statutory>> stereotype.
end note
Statutory o- -> "1" Statute : statute
PropertyStatute - -|> Statute

Statute - -|> Statutory
note on link
A statute is
itself statutory
end note

object accessPropertyStatute {
  statutoryProperty : access
}
note top
  Choice of access control
  mechanism is statutory
end note
accessPropertyStatute - -> PropertyStatute : rdf:type

object typePropertyStatute {
  statutoryProperty = rdf:type
}
note top
  The type of every subject is statutory
end note
typePropertyStatute - -> PropertyStatute : rdf:type

"rdfs:Class" - -|> Statutory
"rdf:Property" - -|> Statutory

@enduml

@startuml

hide circle

skinparam object {
  BackgroundColor Pink
}

abstract class Statute
note left
  Defines a scope of data
  requiring agreement
end note

Statute o- -> "*" AgreementCondition : sufficientCondition
AgreementCondition - -|> Statutory

class PropertyStatute {
  statutoryProperty : Term
}
note left of PropertyStatute
Applies to changes to a property.
Does not apply if the Subject
is new or removed entirely.
end note

abstract class Statutory
note right
Can be mixed-in to any Subject.
In other diagrams we'll use the
<<statutory>> stereotype.
end note
Statutory o- -> "1" Statute : statute
PropertyStatute - -|> Statute

Statute - -|> Statutory
note on link
A statute is
itself statutory
end note

object accessPropertyStatute {
  statutoryProperty : access
}
note top
  Choice of access control
  mechanism is statutory
end note
accessPropertyStatute - -> PropertyStatute : rdf:type

object typePropertyStatute {
  statutoryProperty = rdf:type
}
note top
  The type of every subject is statutory
end note
typePropertyStatute - -> PropertyStatute : rdf:type

"rdfs:Class" - -|> Statutory
"rdf:Property" - -|> Statutory

@enduml

PlantUML version 1.2021.10(Mon Aug 30 14:43:48 BST 2021)
(GPL source distribution)
Java Runtime: OpenJDK Runtime Environment
JVM: OpenJDK 64-Bit Server VM
Default Encoding: UTF-8
Language: en
Country: GB
--></g></svg>