<?xml version="1.0" encoding="UTF-8" standalone="no"?><svg xmlns="http://www.w3.org/2000/svg" xmlns:xlink="http://www.w3.org/1999/xlink" contentScriptType="application/ecmascript" contentStyleType="text/css" height="604px" preserveAspectRatio="none" style="width:716px;height:604px;background:#FFFFFF;" version="1.1" viewBox="0 0 716 604" width="716px" zoomAndPan="magnify"><defs><filter height="300%" id="f1op2c9e6fm6e" width="300%" x="-1" y="-1"><feGaussianBlur result="blurOut" stdDeviation="2.0"/><feColorMatrix in="blurOut" result="blurOut2" type="matrix" values="0 0 0 0 0 0 0 0 0 0 0 0 0 0 0 0 0 0 .4 0"/><feOffset dx="4.0" dy="4.0" in="blurOut2" result="blurOut3"/><feBlend in="SourceGraphic" in2="blurOut3" mode="normal"/></filter></defs><g><!--MD5=[3033666b299940720da52d7acf40ab9f]
cluster mld--><polygon fill="#FFFFFF" filter="url(#f1op2c9e6fm6e)" points="16,6,50,6,57,28.4883,699,28.4883,699,597,16,597,16,6" style="stroke:#000000;stroke-width:1.5;"/><line style="stroke:#000000;stroke-width:1.5;" x1="16" x2="57" y1="28.4883" y2="28.4883"/><text fill="#000000" font-family="sans-serif" font-size="14" font-weight="bold" lengthAdjust="spacing" textLength="28" x="20" y="21.5352">mld</text><!--MD5=[cd04947691f50ee5ceee535c917130ac]
class Statute--><rect codeLine="11" fill="#FEFECE" filter="url(#f1op2c9e6fm6e)" height="93.1309" id="Statute" style="stroke:#A80036;stroke-width:1.5;" width="259" x="32.5" y="325.5"/><text fill="#000000" font-family="sans-serif" font-size="12" font-style="italic" lengthAdjust="spacing" textLength="100" x="112" y="342.1016">«extension point»</text><text fill="#000000" font-family="sans-serif" font-size="12" lengthAdjust="spacing" textLength="39" x="142.5" y="356.2344">Statute</text><line style="stroke:#A80036;stroke-width:1.5;" x1="33.5" x2="290.5" y1="363.7656" y2="363.7656"/><text fill="#000000" font-family="sans-serif" font-size="11" lengthAdjust="spacing" textLength="170" x="38.5" y="378.4004">statutoryClass : rdfs:Class [0..*]</text><text fill="#000000" font-family="sans-serif" font-size="11" lengthAdjust="spacing" textLength="198" x="38.5" y="391.3555">statutoryProperty : rdf:Property [0..*]</text><text fill="#000000" font-family="sans-serif" font-size="11" lengthAdjust="spacing" textLength="247" x="38.5" y="404.3105">statutoryUpdateVerb: 'DELETE' | 'INSERT' [1..2]</text><line style="stroke:#A80036;stroke-width:1.5;" x1="33.5" x2="290.5" y1="410.6309" y2="410.6309"/><path d="M32.5,525 L32.5,580.9316 A0,0 0 0 0 32.5,580.9316 L351.5,580.9316 A0,0 0 0 0 351.5,580.9316 L351.5,535 L341.5,525 L191.45,525 L169.65,418.63 L183.45,525 L32.5,525 A0,0 0 0 0 32.5,525 " fill="#FBFB77" filter="url(#f1op2c9e6fm6e)" style="stroke:#A80036;stroke-width:1.0;"/><path d="M341.5,525 L341.5,535 L351.5,535 L341.5,525 " fill="#FBFB77" style="stroke:#A80036;stroke-width:1.0;"/><text fill="#000000" font-family="sans-serif" font-size="13" lengthAdjust="spacing" textLength="283" x="38.5" y="542.5684">Defines a scope of data requiring agreement.</text><text fill="#000000" font-family="sans-serif" font-size="13" lengthAdjust="spacing" textLength="268" x="38.5" y="557.8789">In other diagrams we'll use the «statutory»</text><text fill="#000000" font-family="sans-serif" font-size="13" lengthAdjust="spacing" textLength="298" x="38.5" y="573.1895">stereotype for statutory classes and properties.</text><path d="M326.5,296 L326.5,312.3105 L208.5,374.2432 L326.5,320.3105 L326.5,336.6211 A0,0 0 0 0 326.5,336.6211 L519.5,336.6211 A0,0 0 0 0 519.5,336.6211 L519.5,306 L509.5,296 L326.5,296 A0,0 0 0 0 326.5,296 " fill="#FBFB77" filter="url(#f1op2c9e6fm6e)" style="stroke:#A80036;stroke-width:1.0;"/><path d="M509.5,296 L509.5,306 L519.5,306 L509.5,296 " fill="#FBFB77" style="stroke:#A80036;stroke-width:1.0;"/><text fill="#000000" font-family="sans-serif" font-size="13" lengthAdjust="spacing" textLength="145" x="332.5" y="313.5684">A class is statutory if a</text><text fill="#000000" font-family="sans-serif" font-size="13" lengthAdjust="spacing" textLength="172" x="332.5" y="328.8789">statutoryClass exists for it.</text><path d="M326.5,346.6211 L326.5,362.9316 L236.5,387.1982 L326.5,370.9316 L326.5,387.2422 A0,0 0 0 0 326.5,387.2422 L513.5,387.2422 A0,0 0 0 0 513.5,387.2422 L513.5,356.6211 L503.5,346.6211 L326.5,346.6211 A0,0 0 0 0 326.5,346.6211 " fill="#FBFB77" filter="url(#f1op2c9e6fm6e)" style="stroke:#A80036;stroke-width:1.0;"/><path d="M503.5,346.6211 L503.5,356.6211 L513.5,356.6211 L503.5,346.6211 " fill="#FBFB77" style="stroke:#A80036;stroke-width:1.0;"/><text fill="#000000" font-family="sans-serif" font-size="13" lengthAdjust="spacing" textLength="155" x="332.5" y="364.1895">A property is statutory if</text><text fill="#000000" font-family="sans-serif" font-size="13" lengthAdjust="spacing" textLength="166" x="332.5" y="379.5">a statutoryProperty exists.</text><path d="M326.5,397.2422 L326.5,413.5527 L285.5,400.1533 L326.5,421.5527 L326.5,437.8633 A0,0 0 0 0 326.5,437.8633 L504.5,437.8633 A0,0 0 0 0 504.5,437.8633 L504.5,407.2422 L494.5,397.2422 L326.5,397.2422 A0,0 0 0 0 326.5,397.2422 " fill="#FBFB77" filter="url(#f1op2c9e6fm6e)" style="stroke:#A80036;stroke-width:1.0;"/><path d="M494.5,397.2422 L494.5,407.2422 L504.5,407.2422 L494.5,397.2422 " fill="#FBFB77" style="stroke:#A80036;stroke-width:1.0;"/><text fill="#000000" font-family="sans-serif" font-size="13" lengthAdjust="spacing" textLength="157" x="332.5" y="414.8105">Is agreement required on</text><text fill="#000000" font-family="sans-serif" font-size="13" lengthAdjust="spacing" textLength="137" x="332.5" y="430.1211">delete, insert or both?</text><!--MD5=[e858af084306b6893e511512445fa96f]
class AgreementCondition--><rect fill="#FEFECE" filter="url(#f1op2c9e6fm6e)" height="40.1328" id="AgreementCondition" style="stroke:#A80036;stroke-width:1.5;" width="123" x="457.5" y="533"/><text fill="#000000" font-family="sans-serif" font-size="12" lengthAdjust="spacing" textLength="117" x="460.5" y="549.6016">AgreementCondition</text><line style="stroke:#A80036;stroke-width:1.5;" x1="458.5" x2="579.5" y1="557.1328" y2="557.1328"/><line style="stroke:#A80036;stroke-width:1.5;" x1="458.5" x2="579.5" y1="565.1328" y2="565.1328"/><rect fill="#FFC0CB" filter="url(#f1op2c9e6fm6e)" height="34.1328" style="stroke:#A80036;stroke-width:1.5;" width="92" x="460" y="171.5"/><text fill="#000000" font-family="sans-serif" font-size="12" lengthAdjust="spacing" textLength="78" x="467" y="185.1016">statuteStatute</text><line style="stroke:#A80036;stroke-width:1.5;" x1="461" x2="551" y1="189.6328" y2="189.6328"/><path d="M482,41 L482,96.9316 A0,0 0 0 0 482,96.9316 L555,96.9316 L515.54,171.25 L563,96.9316 L668,96.9316 A0,0 0 0 0 668,96.9316 L668,51 L658,41 L482,41 A0,0 0 0 0 482,41 " fill="#FBFB77" filter="url(#f1op2c9e6fm6e)" style="stroke:#A80036;stroke-width:1.0;"/><path d="M658,41 L658,51 L668,51 L658,41 " fill="#FBFB77" style="stroke:#A80036;stroke-width:1.0;"/><text fill="#000000" font-family="sans-serif" font-size="13" lengthAdjust="spacing" textLength="148" x="488" y="58.5684">Statutes and agreement</text><text fill="#000000" font-family="sans-serif" font-size="13" lengthAdjust="spacing" textLength="165" x="488" y="73.8789">conditions are themselves</text><text fill="#000000" font-family="sans-serif" font-size="13" lengthAdjust="spacing" textLength="61" x="488" y="89.1895">statutory.</text><rect fill="#FFC0CB" filter="url(#f1op2c9e6fm6e)" height="61.4648" style="stroke:#A80036;stroke-width:1.5;" width="154" x="249" y="158"/><text fill="#000000" font-family="sans-serif" font-size="12" lengthAdjust="spacing" textLength="62" x="295" y="171.6016">rdfsStatute</text><line style="stroke:#A80036;stroke-width:1.5;" x1="250" x2="402" y1="176.1328" y2="176.1328"/><text fill="#000000" font-family="sans-serif" font-size="10" lengthAdjust="spacing" textLength="132" x="255" y="189.8008">statutoryClass = rdfs:Class</text><text fill="#000000" font-family="sans-serif" font-size="10" lengthAdjust="spacing" textLength="142" x="255" y="201.5781">statutoryClass = rdf:Property</text><text fill="#000000" font-family="sans-serif" font-size="10" lengthAdjust="spacing" textLength="137" x="255" y="213.3555">statutoryProperty = rdf:type</text><path d="M243.5,41 L243.5,96.9316 A0,0 0 0 0 243.5,96.9316 L336.59,96.9316 L330.78,157.93 L344.59,96.9316 L446.5,96.9316 A0,0 0 0 0 446.5,96.9316 L446.5,51 L436.5,41 L243.5,41 A0,0 0 0 0 243.5,41 " fill="#FBFB77" filter="url(#f1op2c9e6fm6e)" style="stroke:#A80036;stroke-width:1.0;"/><path d="M436.5,41 L436.5,51 L446.5,51 L436.5,41 " fill="#FBFB77" style="stroke:#A80036;stroke-width:1.0;"/><text fill="#000000" font-family="sans-serif" font-size="13" lengthAdjust="spacing" textLength="181" x="249.5" y="58.5684">Classes, property definitions</text><text fill="#000000" font-family="sans-serif" font-size="13" lengthAdjust="spacing" textLength="182" x="249.5" y="73.8789">and the type of every subject</text><text fill="#000000" font-family="sans-serif" font-size="13" lengthAdjust="spacing" textLength="76" x="249.5" y="89.1895">is statutory.</text><rect fill="#FFC0CB" filter="url(#f1op2c9e6fm6e)" height="49.6875" style="stroke:#A80036;stroke-width:1.5;" width="165" x="41.5" y="163.5"/><text fill="#000000" font-family="sans-serif" font-size="12" lengthAdjust="spacing" textLength="118" x="65" y="177.1016">accessControlStatute</text><line style="stroke:#A80036;stroke-width:1.5;" x1="42.5" x2="205.5" y1="181.6328" y2="181.6328"/><text fill="#000000" font-family="sans-serif" font-size="10" lengthAdjust="spacing" textLength="153" x="47.5" y="195.3008">statutoryClass = AccessControl</text><text fill="#000000" font-family="sans-serif" font-size="10" lengthAdjust="spacing" textLength="131" x="47.5" y="207.0781">statutoryProperty = access</text><path d="M32,48.5 L32,89.1211 A0,0 0 0 0 32,89.1211 L116.67,89.1211 L123.18,163.29 L124.67,89.1211 L208,89.1211 A0,0 0 0 0 208,89.1211 L208,58.5 L198,48.5 L32,48.5 A0,0 0 0 0 32,48.5 " fill="#FBFB77" filter="url(#f1op2c9e6fm6e)" style="stroke:#A80036;stroke-width:1.0;"/><path d="M198,48.5 L198,58.5 L208,58.5 L198,48.5 " fill="#FBFB77" style="stroke:#A80036;stroke-width:1.0;"/><text fill="#000000" font-family="sans-serif" font-size="13" lengthAdjust="spacing" textLength="155" x="38" y="66.0684">Choice of access control</text><text fill="#000000" font-family="sans-serif" font-size="13" lengthAdjust="spacing" textLength="152" x="38" y="81.3789">mechanism is statutory.</text><!--MD5=[4b8dbdf2b641d67ef0c3285b4cf2c099]
link Statute to Statute$$$RIGHT--><!--MD5=[09d19b99fbdb614ae1cd25ab3af48830]
link Statute to AgreementCondition--><path codeLine="34" d="M261.6133,424.0255 C261.6133,424.0255 294.01,440.46 309,448 C363.37,475.33 425.9,506.23 468.49,527.2 " fill="none" id="Statute-AgreementCondition" style="stroke:#A80036;stroke-width:1.0;"/><polygon fill="#A80036" points="480.23,532.97,473.9243,525.4044,475.7447,530.7604,470.3888,532.5808,480.23,532.97" style="stroke:#A80036;stroke-width:1.0;"/><line style="stroke:#A80036;stroke-width:1.0;" x1="475.7447" x2="468.56" y1="530.7604" y2="527.23"/><polygon fill="#FFFFFF" points="250.92,418.58,254.4515,424.8672,261.6133,424.0255,258.0818,417.7383,250.92,418.58" style="stroke:#A80036;stroke-width:1.0;"/><text fill="#000000" font-family="sans-serif" font-size="13" lengthAdjust="spacing" textLength="122" x="402" y="491.5684">sufficientCondition</text><text fill="#000000" font-family="sans-serif" font-size="13" lengthAdjust="spacing" textLength="6" x="461.4379" y="522.1345">*</text><!--MD5=[1598ff68aad29ea5e68499dd2fc94919]
link statuteStatute to Statute--><path codeLine="42" d="M459.97,205.54 C410.93,222.65 339.89,247.52 337,249 C297.1,269.45 255.8,297.85 223.35,322.09 " fill="none" id="statuteStatute-to-Statute" style="stroke:#A80036;stroke-width:1.0;"/><polygon fill="#A80036" points="219.03,325.33,228.63,323.13,223.03,322.33,223.83,316.73,219.03,325.33" style="stroke:#A80036;stroke-width:1.0;"/><text fill="#000000" font-family="sans-serif" font-size="13" lengthAdjust="spacing" textLength="91" x="338" y="262.5684">statutoryClass</text><!--MD5=[1598ff68aad29ea5e68499dd2fc94919]
link statuteStatute to Statute--><path codeLine="43" d="M495.27,205.58 C482.69,223.15 460.19,250.81 434,266 C384.58,294.67 362.6,276.21 309,296 C288.51,303.56 267.19,313.27 247.35,323.18 " fill="none" id="statuteStatute-to-Statute-1" style="stroke:#A80036;stroke-width:1.0;"/><polygon fill="#A80036" points="242.87,325.43,252.7081,324.9702,247.3393,323.1882,249.1213,317.8194,242.87,325.43" style="stroke:#A80036;stroke-width:1.0;"/><text fill="#000000" font-family="sans-serif" font-size="13" lengthAdjust="spacing" textLength="49" x="457" y="262.5684">rdf:type</text><!--MD5=[30403d2f473d6f109ec737debcc39d09]
link statuteStatute to AgreementCondition--><path codeLine="44" d="M512.31,205.78 C519.94,226.41 532.32,263.21 537,296 C549.49,383.58 547.34,407.71 533,495 C531.21,505.87 528.44,517.73 525.83,527.8 " fill="none" id="statuteStatute-to-AgreementCondition" style="stroke:#A80036;stroke-width:1.0;"/><polygon fill="#A80036" points="524.48,532.89,530.6611,525.2223,525.7665,528.0584,522.9304,523.1638,524.48,532.89" style="stroke:#A80036;stroke-width:1.0;"/><text fill="#000000" font-family="sans-serif" font-size="13" lengthAdjust="spacing" textLength="91" x="546" y="377.0684">statutoryClass</text><!--MD5=[11ba67d0b5a334a2243c53ff83286073]
link rdfsStatute to Statute--><path codeLine="56" d="M274.3,219.19 C261.6,227.85 248.62,237.98 238,249 C217.79,269.98 200.21,297.19 187.07,320.58 " fill="none" id="rdfsStatute-to-Statute" style="stroke:#A80036;stroke-width:1.0;"/><polygon fill="#A80036" points="184.5,325.21,192.3756,319.2961,186.9343,320.8426,185.3878,315.4012,184.5,325.21" style="stroke:#A80036;stroke-width:1.0;"/><text fill="#000000" font-family="sans-serif" font-size="13" lengthAdjust="spacing" textLength="49" x="239" y="262.5684">rdf:type</text><!--MD5=[9ebe65d2deca69fcef4b2974ed4ab798]
link accessControlStatute to Statute--><path codeLine="66" d="M124.56,213.8 C125.24,228.92 126.73,248.72 130,266 C133.39,283.9 138.71,303.08 144.05,320.08 " fill="none" id="accessControlStatute-to-Statute" style="stroke:#A80036;stroke-width:1.0;"/><polygon fill="#A80036" points="145.7,325.28,146.7817,315.4907,144.1834,320.5156,139.1586,317.9173,145.7,325.28" style="stroke:#A80036;stroke-width:1.0;"/><text fill="#000000" font-family="sans-serif" font-size="13" lengthAdjust="spacing" textLength="49" x="131" y="262.5684">rdf:type</text><!--MD5=[5d5472258b12f70299db9c9386896c36]
@startuml
'https://plantuml.com/object-diagram

hide circle

skinparam object {
  BackgroundColor Pink
}

package mld {

class Statute <<extension point>> {
  statutoryClass : rdfs:Class [0..*]
  statutoryProperty : rdf:Property [0..*]
  statutoryUpdateVerb: 'DELETE' | 'INSERT' [1..2]
}
note bottom
Defines a scope of data requiring agreement.
In other diagrams we'll use the <<statutory>>
stereotype for statutory classes and properties.
end note
note right of Statute::statutoryClass
A class is statutory if a
statutoryClass exists for it.
end note
note right of Statute::statutoryProperty
A property is statutory if
a statutoryProperty exists.
end note
note right of Statute::statutoryUpdateVerb
Is agreement required on
delete, insert or both?
end note

Statute o- -> "*" AgreementCondition : sufficientCondition

object statuteStatute
note top
Statutes and agreement
conditions are themselves
statutory.
end note
statuteStatute - -> Statute : statutoryClass
statuteStatute - -> Statute : rdf:type
statuteStatute - -> AgreementCondition : statutoryClass

object rdfsStatute {
  statutoryClass = rdfs:Class
  statutoryClass = rdf:Property
  statutoryProperty = rdf:type
}
note top
  Classes, property definitions
  and the type of every subject
  is statutory.
end note
rdfsStatute - -> Statute : rdf:type

object accessControlStatute {
  statutoryClass = AccessControl
  statutoryProperty = access
}
note top
  Choice of access control
  mechanism is statutory.
end note
accessControlStatute - -> Statute : rdf:type

}
@enduml

@startuml

hide circle

skinparam object {
  BackgroundColor Pink
}

package mld {

class Statute <<extension point>> {
  statutoryClass : rdfs:Class [0..*]
  statutoryProperty : rdf:Property [0..*]
  statutoryUpdateVerb: 'DELETE' | 'INSERT' [1..2]
}
note bottom
Defines a scope of data requiring agreement.
In other diagrams we'll use the <<statutory>>
stereotype for statutory classes and properties.
end note
note right of Statute::statutoryClass
A class is statutory if a
statutoryClass exists for it.
end note
note right of Statute::statutoryProperty
A property is statutory if
a statutoryProperty exists.
end note
note right of Statute::statutoryUpdateVerb
Is agreement required on
delete, insert or both?
end note

Statute o- -> "*" AgreementCondition : sufficientCondition

object statuteStatute
note top
Statutes and agreement
conditions are themselves
statutory.
end note
statuteStatute - -> Statute : statutoryClass
statuteStatute - -> Statute : rdf:type
statuteStatute - -> AgreementCondition : statutoryClass

object rdfsStatute {
  statutoryClass = rdfs:Class
  statutoryClass = rdf:Property
  statutoryProperty = rdf:type
}
note top
  Classes, property definitions
  and the type of every subject
  is statutory.
end note
rdfsStatute - -> Statute : rdf:type

object accessControlStatute {
  statutoryClass = AccessControl
  statutoryProperty = access
}
note top
  Choice of access control
  mechanism is statutory.
end note
accessControlStatute - -> Statute : rdf:type

}
@enduml

PlantUML version 1.2021.10(Mon Aug 30 14:43:48 BST 2021)
(GPL source distribution)
Java Runtime: OpenJDK Runtime Environment
JVM: OpenJDK 64-Bit Server VM
Default Encoding: UTF-8
Language: en
Country: GB
--></g></svg>