<?xml version="1.0" encoding="UTF-8" standalone="no"?><!DOCTYPE svg PUBLIC "-//W3C//DTD SVG 1.1//EN" "http://www.w3.org/Graphics/SVG/1.1/DTD/svg11.dtd"><!-- Generated by graphviz version 2.40.1 (20161225.0304)
 --><!-- Title: G Pages: 1 --><svg xmlns="http://www.w3.org/2000/svg" xmlns:xlink="http://www.w3.org/1999/xlink" width="555pt" height="98pt" viewBox="0.00 0.00 555.14 98.00">
<g id="graph0" class="graph" transform="scale(1 1) rotate(0) translate(4 94)">
<title>G</title>
<polygon fill="#ffffff" stroke="transparent" points="-4,4 -4,-94 551.1424,-94 551.1424,4 -4,4"/>
<!-- draft -->
<g id="node1" class="node">
<title>draft</title>
<ellipse fill="none" stroke="#000000" cx="29.265" cy="-45" rx="29.0318" ry="18"/>
<text text-anchor="middle" x="29.265" y="-40.8" font-family="Times,serif" font-size="14.00" fill="#000000">draft</text>
</g>
<!-- agreed -->
<g id="node2" class="node">
<title>agreed</title>
<ellipse fill="none" stroke="#000000" cx="131.2983" cy="-45" rx="36.5383" ry="18"/>
<text text-anchor="middle" x="131.2983" y="-40.8" font-family="Times,serif" font-size="14.00" fill="#000000">agreed</text>
</g>
<!-- draft&#45;&gt;agreed -->
<g id="edge1" class="edge">
<title>draft-&gt;agreed</title>
<path fill="none" stroke="#000000" d="M58.7772,-45C66.7302,-45 75.5365,-45 84.1918,-45"/>
<polygon fill="#000000" stroke="#000000" points="84.223,-48.5001 94.2229,-45 84.2229,-41.5001 84.223,-48.5001"/>
</g>
<!-- shipped -->
<g id="node3" class="node">
<title>shipped</title>
<ellipse fill="none" stroke="#000000" cx="245.1431" cy="-70" rx="41.1529" ry="18"/>
<text text-anchor="middle" x="245.1431" y="-65.8" font-family="Times,serif" font-size="14.00" fill="#000000">shipped</text>
</g>
<!-- agreed&#45;&gt;shipped -->
<g id="edge2" class="edge">
<title>agreed-&gt;shipped</title>
<path fill="none" stroke="#000000" d="M165.1473,-52.4331C175.4847,-54.7032 187.0443,-57.2417 198.0921,-59.6677"/>
<polygon fill="#000000" stroke="#000000" points="197.5265,-63.1269 208.0445,-61.8532 199.0279,-56.2898 197.5265,-63.1269"/>
</g>
<!-- paid -->
<g id="node4" class="node">
<title>paid</title>
<ellipse fill="none" stroke="#000000" cx="365.9582" cy="-18" rx="27.8286" ry="18"/>
<text text-anchor="middle" x="365.9582" y="-13.8" font-family="Times,serif" font-size="14.00" fill="#000000">paid</text>
</g>
<!-- agreed&#45;&gt;paid -->
<g id="edge3" class="edge">
<title>agreed-&gt;paid</title>
<path fill="none" stroke="#000000" d="M167.1935,-40.8699C210.8153,-35.8508 284.0707,-27.422 328.4209,-22.3191"/>
<polygon fill="#000000" stroke="#000000" points="328.9656,-25.7796 338.4999,-21.1594 328.1654,-18.8254 328.9656,-25.7796"/>
</g>
<!-- received -->
<g id="node5" class="node">
<title>received</title>
<ellipse fill="none" stroke="#000000" cx="365.9582" cy="-72" rx="43.9789" ry="18"/>
<text text-anchor="middle" x="365.9582" y="-67.8" font-family="Times,serif" font-size="14.00" fill="#000000">received</text>
</g>
<!-- shipped&#45;&gt;received -->
<g id="edge4" class="edge">
<title>shipped-&gt;received</title>
<path fill="none" stroke="#000000" d="M286.3829,-70.6827C294.5474,-70.8178 303.233,-70.9616 311.7524,-71.1027"/>
<polygon fill="#000000" stroke="#000000" points="311.9589,-74.6065 322.0155,-71.2726 312.0748,-67.6074 311.9589,-74.6065"/>
</g>
<!-- concluded -->
<g id="node6" class="node">
<title>concluded</title>
<ellipse fill="none" stroke="#000000" cx="496.4197" cy="-18" rx="50.9464" ry="18"/>
<text text-anchor="middle" x="496.4197" y="-13.8" font-family="Times,serif" font-size="14.00" fill="#000000">concluded</text>
</g>
<!-- paid&#45;&gt;concluded -->
<g id="edge7" class="edge">
<title>paid-&gt;concluded</title>
<path fill="none" stroke="#000000" d="M393.6258,-18C405.9017,-18 420.8702,-18 435.5435,-18"/>
<polygon fill="#000000" stroke="#000000" points="435.618,-21.5001 445.618,-18 435.618,-14.5001 435.618,-21.5001"/>
</g>
<!-- received&#45;&gt;concluded -->
<g id="edge5" class="edge">
<title>received-&gt;concluded</title>
<path fill="none" stroke="#000000" d="M396.8758,-59.2028C413.8154,-52.1912 435.0709,-43.3932 453.5863,-35.7294"/>
<polygon fill="#000000" stroke="#000000" points="455.0803,-38.8991 462.9815,-31.8406 452.4031,-32.4312 455.0803,-38.8991"/>
</g>
<!-- disputed -->
<g id="node7" class="node">
<title>disputed</title>
<ellipse fill="none" stroke="#000000" cx="496.4197" cy="-72" rx="43.5214" ry="18"/>
<text text-anchor="middle" x="496.4197" y="-67.8" font-family="Times,serif" font-size="14.00" fill="#000000">disputed</text>
</g>
<!-- received&#45;&gt;disputed -->
<g id="edge6" class="edge">
<title>received-&gt;disputed</title>
<path fill="none" stroke="#000000" d="M409.7629,-72C420.1969,-72 431.4536,-72 442.2893,-72"/>
<polygon fill="#000000" stroke="#000000" points="442.5086,-75.5001 452.5085,-72 442.5085,-68.5001 442.5086,-75.5001"/>
</g>
</g>
</svg>